<?xml version="1.0" encoding="utf-8"?>
<!-- Generator: Adobe Illustrator 27.2.0, SVG Export Plug-In . SVG Version: 6.00 Build 0)  -->
<svg version="1.1" id="Layer_1" xmlns="http://www.w3.org/2000/svg" xmlns:xlink="http://www.w3.org/1999/xlink" x="0px" y="0px"
	 viewBox="0 0 351 108.9" style="enable-background:new 0 0 351 108.9;" xml:space="preserve">
<style type="text/css">
	.st0{fill:#8A8C09;}
	.st1{fill:#FFFFFF;}
	.st2{fill:#8A8D09;}
</style>
<g>
	<defs>
		<rect id="SVGID_1_" x="414" width="351" height="108.9"/>
	</defs>
	<clipPath id="SVGID_00000018947836565467451690000011947545906292408723_">
		<use xlink:href="#SVGID_1_"  style="overflow:visible;"/>
	</clipPath>
</g>
<g>
	<g>
		<path class="st0" d="M342.3,77.5c0-3.4-1.3-6.2-6-8.8l-5.2-2.9c-2.8-1.6-3.5-2.4-3.5-3.8c0-1.9,1.3-3.1,4.5-3.1
			c2.8,0,5.7,0.2,8.5,0.4h0.1c0.4,0,0.7-0.3,0.7-0.8v-3.2c0-0.4-0.3-0.7-0.8-0.8c-1.5-0.3-5.4-0.8-8.3-0.8c-8,0-10.8,3.5-10.8,8.2
			c0,3,1.1,5.5,5.1,7.9l5.7,3.4c2.8,1.7,3.7,2.5,3.7,4.2c0,2.5-1.2,3.9-5,3.9c-1.6,0-5.9-0.2-7.6-0.4h-0.1c-0.4,0-0.8,0.3-0.8,0.8
			v3.1c0,0.5,0.4,0.8,0.8,0.9c2.1,0.5,4.4,0.8,7.6,0.8C339.6,86.5,342.3,81.8,342.3,77.5 M316.6,85.3V65.8c0-9.2-4.5-12.1-12.5-12.1
			c-2.5,0-7.2,0.4-9.5,0.7c-1.3,0.2-1.8,0.6-1.8,2.2v28.6c0,0.5,0.3,0.9,0.8,0.9h4.4c0.5,0,0.8-0.4,0.8-0.9v-26
			c1.4-0.2,3.8-0.3,6-0.3c4.1,0,5.9,2,5.9,6.9v19.5c0,0.5,0.3,0.9,0.8,0.9h4.4C316.3,86.2,316.6,85.8,316.6,85.3 M281.1,73
			c0,5.7-2,8.3-6.3,8.3s-6.3-2.5-6.3-8.3v-5.8c0-5.7,2-8.2,6.3-8.2s6.3,2.5,6.3,8.2V73z M287.1,73v-5.8c0-9.5-5.2-13.5-12.3-13.5
			s-12.3,4-12.3,13.5V73c0,9.5,5.2,13.5,12.3,13.5S287.1,82.5,287.1,73 M256.9,85.3V54.9c0-0.5-0.4-0.8-0.9-0.8h-4.3
			c-0.5,0-0.9,0.3-0.9,0.8v30.4c0,0.5,0.4,0.9,0.9,0.9h4.3C256.5,86.2,256.9,85.8,256.9,85.3 M246.6,58.3v-3.4
			c0-0.5-0.4-0.8-0.9-0.8h-21.1c-0.5,0-0.9,0.3-0.9,0.8v3.4c0,0.5,0.4,0.8,0.9,0.8h7.6v26.2c0,0.5,0.4,0.9,0.9,0.9h4.3
			c0.5,0,0.9-0.4,0.9-0.9V59.1h7.6C246.2,59.1,246.6,58.8,246.6,58.3 M219.4,83.1V54.9c0-0.5-0.4-0.8-0.9-0.8h-4.3
			c-0.5,0-0.8,0.3-0.8,0.8v26.3c-1.6,0.2-4.2,0.3-6,0.3c-4.7,0-5.8-2.2-5.8-7.2V54.9c0-0.5-0.4-0.8-0.9-0.8h-4.3
			c-0.5,0-0.9,0.3-0.9,0.8v19.5c0,9.2,4.8,12.1,11.8,12.1c2.6,0,8.1-0.5,9.6-0.7C218.6,85.6,219.4,85,219.4,83.1 M193.4,85v-2.8
			c0-0.5-0.4-0.9-0.9-0.9h-7.9c-2.5,0-3.4-0.9-3.4-3.7V54.9c0-0.5-0.4-0.9-0.9-0.9H176c-0.5,0-0.9,0.4-0.9,0.9v22.7
			c0,7.3,4.4,8.9,10,8.9c2.3,0,6-0.3,7.3-0.6C193.1,85.8,193.4,85.6,193.4,85 M163.5,73c0,5.7-2,8.3-6.3,8.3S151,78.7,151,73v-5.8
			c0-5.7,2-8.2,6.3-8.2s6.3,2.5,6.3,8.2V73z M169.6,73v-5.8c0-9.5-5.2-13.5-12.3-13.5c-7.1,0-12.3,4-12.3,13.5V73
			c0,9.5,5.2,13.5,12.3,13.5C164.4,86.5,169.6,82.5,169.6,73 M140.6,77.5c0-3.4-1.3-6.2-6-8.8l-5.2-2.9c-2.8-1.6-3.5-2.4-3.5-3.8
			c0-1.9,1.3-3.1,4.5-3.1c2.8,0,5.7,0.2,8.5,0.4h0.1c0.4,0,0.7-0.3,0.7-0.8v-3.2c0-0.4-0.3-0.7-0.8-0.8c-1.5-0.3-5.4-0.8-8.3-0.8
			c-8,0-10.8,3.5-10.8,8.2c0,3,1.1,5.5,5.1,7.9l5.7,3.4c2.9,1.7,3.7,2.5,3.7,4.2c0,2.5-1.2,3.9-5,3.9c-1.6,0-5.9-0.2-7.6-0.4h-0.1
			c-0.4,0-0.8,0.3-0.8,0.8v3.1c0,0.5,0.4,0.8,0.8,0.9c2.1,0.5,4.4,0.8,7.6,0.8C137.9,86.5,140.6,81.8,140.6,77.5"/>
		<path class="st1" d="M351,46.8V44c0-0.5-0.4-0.9-0.9-0.9h-8.8c-2.5,0-3.4-0.9-3.4-3.7v-5.6h11.7c0.5,0,0.9-0.4,0.9-0.9v-3.1
			c0-0.5-0.4-0.9-0.9-0.9h-11.7v-4.7c0-2.9,0.9-3.7,3.4-3.7h8.8c0.5,0,0.9-0.4,0.9-0.9V17c0-0.6-0.2-0.8-0.9-0.9
			c-1.4-0.2-3.1-0.6-8.2-0.6c-5.6,0-10,1.5-10,8.9v15.1c0,7.3,4.4,8.9,10,8.9c5.1,0,6.8-0.4,8.2-0.6C350.8,47.6,351,47.4,351,46.8
			 M328.5,16.6c0-0.4-0.3-0.7-0.8-0.7h-4.6c-0.4,0-0.7,0.3-0.8,0.7l-6.3,26c-0.1,0.5-0.3,0.7-0.7,0.7c-0.4,0-0.6-0.2-0.7-0.7
			l-6.3-26c-0.1-0.4-0.4-0.7-0.8-0.7h-4.6c-0.4,0-0.8,0.3-0.8,0.7c0,0.1,0,0.1,0,0.2l7.1,27.1c1,4,4.1,4.4,6,4.4c1.9,0,5-0.4,6-4.4
			l7.1-27.1C328.5,16.7,328.5,16.7,328.5,16.6 M298,47.1V16.7c0-0.5-0.4-0.8-0.9-0.8h-4.3c-0.5,0-0.9,0.3-0.9,0.8v30.4
			c0,0.5,0.4,0.9,0.9,0.9h4.3C297.6,48,298,47.6,298,47.1 M287.7,20.1v-3.4c0-0.5-0.4-0.8-0.9-0.8h-21.1c-0.5,0-0.9,0.3-0.9,0.8v3.4
			c0,0.5,0.4,0.8,0.9,0.8h7.6v26.2c0,0.5,0.4,0.9,0.9,0.9h4.3c0.5,0,0.9-0.4,0.9-0.9V20.9h7.6C287.3,20.9,287.7,20.6,287.7,20.1
			 M255.8,30.6H245v-5.8c0-3,0.9-4,3.9-4h3c3.1,0,3.9,1,3.9,4V30.6z M261.8,47.1V24.8c0-7.3-3.9-9.2-9.9-9.2h-3
			c-6,0-9.9,1.9-9.9,9.2v22.2c0,0.5,0.3,0.9,0.8,0.9h4.4c0.5,0,0.8-0.4,0.8-0.9V35.7h10.8v11.4c0,0.5,0.3,0.9,0.8,0.9h4.4
			C261.4,48,261.8,47.6,261.8,47.1 M236,16.6c0-0.4-0.3-0.7-0.8-0.7h-4.6c-0.4,0-0.7,0.3-0.8,0.7l-6.3,26c-0.1,0.5-0.3,0.7-0.7,0.7
			c-0.4,0-0.6-0.2-0.7-0.7l-6.3-26c-0.1-0.4-0.4-0.7-0.8-0.7h-4.6c-0.4,0-0.8,0.3-0.8,0.7c0,0.1,0,0.1,0,0.2l7.1,27.1
			c1,4,4.1,4.4,6,4.4c1.9,0,5-0.4,6-4.4l7.1-27.1C236,16.7,236,16.7,236,16.6 M201.4,34.8c0,5.7-2,8.3-6.3,8.3s-6.3-2.5-6.3-8.3V29
			c0-5.7,2-8.2,6.3-8.2s6.3,2.5,6.3,8.2V34.8z M207.5,34.8V29c0-9.5-5.2-13.5-12.3-13.5c-7.1,0-12.3,4-12.3,13.5v5.8
			c0,9.5,5.2,13.5,12.3,13.5C202.3,48.3,207.5,44.3,207.5,34.8 M177.5,47.1V27.6c0-9.2-4.5-12.1-12.5-12.1c-2.5,0-7.2,0.4-9.5,0.7
			c-1.3,0.2-1.8,0.6-1.8,2.2v28.6c0,0.5,0.3,0.9,0.8,0.9h4.4c0.5,0,0.8-0.4,0.8-0.9V21c1.4-0.2,3.8-0.3,6-0.3c4.1,0,5.9,2,5.9,6.9
			v19.5c0,0.5,0.3,0.9,0.8,0.9h4.4C177.1,48,177.5,47.6,177.5,47.1 M147.3,47.1V27.6c0-9.2-4.5-12.1-12.5-12.1
			c-2.5,0-7.2,0.4-9.5,0.7c-1.3,0.2-1.8,0.6-1.8,2.2v28.6c0,0.5,0.3,0.9,0.8,0.9h4.4c0.5,0,0.8-0.4,0.8-0.9V21
			c1.4-0.2,3.8-0.3,6-0.3c4.1,0,5.9,2,5.9,6.9v19.5c0,0.5,0.3,0.9,0.8,0.9h4.4C147,48,147.3,47.6,147.3,47.1 M117.3,47V24.5
			c0-0.5-0.4-0.9-0.9-0.9h-4c-0.5,0-0.9,0.4-0.9,0.9V47c0,0.5,0.4,0.9,0.9,0.9h4C116.9,48,117.3,47.5,117.3,47 M117.4,19.5v-3.8
			c0-0.5-0.4-0.9-0.9-0.9h-4.2c-0.5,0-0.9,0.4-0.9,0.9v3.8c0,0.5,0.4,0.9,0.9,0.9h4.2C117,20.4,117.4,20,117.4,19.5"/>
		<g>
			<path class="st1" d="M129,99.4H125l-1.2,1.9H123l4.8-7.7h0.8l1.5,7.7h-0.7L129,99.4z M125.3,98.8h3.6l-0.8-4.5L125.3,98.8z"/>
			<path class="st1" d="M141.4,96.9c0,2.1-1.6,4.4-4.8,4.4h-2.4l1.7-7.7h2.4C140,93.6,141.4,95,141.4,96.9z M140.7,96.9
				c0-1.6-1.1-2.7-2.6-2.7h-1.7l-1.4,6.5h1.8C139.2,100.7,140.7,98.9,140.7,96.9z"/>
			<path class="st1" d="M143.9,93.6h0.7l-1.7,7.7h-0.7L143.9,93.6z"/>
			<path class="st1" d="M145.7,93.6h0.7l1.3,6.9l4.3-6.9h0.8l-4.8,7.7h-0.8L145.7,93.6z"/>
			<path class="st1" d="M153.9,93.6h0.7l-1.7,7.7h-0.7L153.9,93.6z"/>
			<path class="st1" d="M155.2,99.6c0.5,0.7,1.4,1.2,2.5,1.2c1.4,0,1.9-0.9,1.9-1.7c0-0.8-0.8-1.2-1.7-1.5c-1-0.4-2.1-0.9-2.1-2
				c0-1.2,1.1-2.1,2.6-2.1c1.2,0,2.2,0.5,2.6,1.2l-0.5,0.5c-0.5-0.7-1.3-1.1-2.2-1.1c-1,0-1.8,0.7-1.8,1.5c0,0.7,0.8,1,1.7,1.4
				c1,0.4,2.2,0.9,2.2,2.1c0,1.2-0.9,2.3-2.7,2.3c-1.3,0-2.5-0.6-2.9-1.3L155.2,99.6z"/>
			<path class="st1" d="M163.2,93.6h0.7l-1.7,7.7h-0.7L163.2,93.6z"/>
			<path class="st1" d="M168.7,93.5c1.9,0,3.4,1.2,3.4,3.3c0,2.6-1.9,4.6-4.2,4.6c-1.9,0-3.5-1.2-3.5-3.3
				C164.5,95.5,166.4,93.5,168.7,93.5z M168.7,94.1c-1.9,0-3.5,1.7-3.5,4c0,1.8,1.3,2.8,2.8,2.8c1.9,0,3.5-1.7,3.5-4
				C171.5,95,170.2,94.1,168.7,94.1z"/>
			<path class="st1" d="M175,94.6l-1.5,6.7h-0.7l1.7-7.7h0.7l3.3,6.6l1.5-6.6h0.7l-1.7,7.7h-0.6L175,94.6z"/>
			<path class="st1" d="M188.6,93.5c1.9,0,3.4,1.2,3.4,3.3c0,2.6-1.9,4.6-4.2,4.6c-1.9,0-3.5-1.2-3.5-3.3
				C184.3,95.5,186.2,93.5,188.6,93.5z M188.5,94.1c-1.9,0-3.5,1.7-3.5,4c0,1.8,1.3,2.8,2.8,2.8c1.9,0,3.5-1.7,3.5-4
				C191.3,95,190,94.1,188.5,94.1z"/>
			<path class="st1" d="M194.4,93.6h4.9l-0.1,0.6h-4.2l-0.6,2.8h4.1l-0.1,0.6h-4.1l-0.8,3.6h-0.7L194.4,93.6z"/>
			<path class="st1" d="M204.5,98l-0.9,0.8l-0.5,2.5h-1.3l1.7-7.7h1.3l-0.8,3.5l3.7-3.5h1.8l-3.9,3.6l2.5,4.1h-1.6L204.5,98z"/>
			<path class="st1" d="M210.6,93.6h5.3l-0.3,1.2h-3.9l-0.4,2h3.8l-0.3,1.2H211l-0.5,2.1h3.9l-0.3,1.2h-5.3L210.6,93.6z"/>
			<path class="st1" d="M218.2,95.6l-1.3,5.7h-1.3l1.7-7.7h1.4l2.7,5.5l1.2-5.5h1.3l-1.7,7.7h-1.3L218.2,95.6z"/>
			<path class="st1" d="M227.1,94.8h-2.3l0.3-1.2h6l-0.3,1.2h-2.3l-1.4,6.5h-1.3L227.1,94.8z"/>
			<path class="st1" d="M236.1,95.6l-1.3,5.7h-1.3l1.7-7.7h1.4l2.7,5.5l1.2-5.5h1.3l-1.7,7.7h-1.3L236.1,95.6z"/>
			<path class="st1" d="M242.4,98.2l1-4.7h1.4l-1,4.6c0,0.1,0,0.2,0,0.4c0,0.9,0.6,1.6,1.8,1.6c1.3,0,1.9-0.8,2.2-2l1-4.6h1.4
				l-1,4.6c-0.4,1.9-1.3,3.2-3.5,3.2c-2.1,0-3.2-1-3.2-2.6C242.4,98.6,242.4,98.4,242.4,98.2z"/>
			<path class="st1" d="M253.3,94.8H251l0.3-1.2h6l-0.3,1.2h-2.3l-1.4,6.5h-1.3L253.3,94.8z"/>
			<path class="st1" d="M260.1,98.4h-1.4l-0.6,2.9h-1.3l1.7-7.7h3.1c1.2,0,2.3,0.8,2.3,2.1c0,1.4-1,2.5-2.3,2.6l1.2,2.9h-1.5
				L260.1,98.4z M262.3,95.8c0-0.6-0.5-1-1.1-1h-1.8l-0.5,2.4h1.9C261.7,97.2,262.3,96.6,262.3,95.8z"/>
			<path class="st1" d="M265.6,93.6h1.3l-1.7,7.7h-1.3L265.6,93.6z"/>
			<path class="st1" d="M270.1,94.8h-2.3l0.3-1.2h6l-0.3,1.2h-2.3l-1.4,6.5h-1.3L270.1,94.8z"/>
			<path class="st1" d="M275.2,93.6h1.3l-1.7,7.7h-1.3L275.2,93.6z"/>
			<path class="st1" d="M281.3,93.5c2.1,0,3.7,1.3,3.7,3.4c0,2.5-1.9,4.5-4.4,4.5c-2.1,0-3.7-1.3-3.7-3.4
				C276.9,95.5,278.8,93.5,281.3,93.5z M281.2,94.7c-1.6,0-2.9,1.4-2.9,3.3c0,1.5,1,2.3,2.3,2.3c1.6,0,2.9-1.4,2.9-3.3
				C283.6,95.5,282.5,94.7,281.2,94.7z"/>
			<path class="st1" d="M287.9,95.6l-1.3,5.7h-1.3l1.7-7.7h1.4l2.7,5.5l1.2-5.5h1.3l-1.7,7.7h-1.3L287.9,95.6z"/>
			<path class="st1" d="M301.5,93.5c1.6,0,2.6,0.8,3.1,1.8l-1.2,0.5c-0.3-0.7-1.1-1.2-2.1-1.2c-1.5,0-2.9,1.4-2.9,3.3
				c0,1.3,0.9,2.3,2.3,2.3c0.7,0,1.3-0.3,1.7-0.7l0.3-1.2h-2.3l0.3-1.2h3.6l-0.6,2.9c-0.8,0.9-1.8,1.3-3.1,1.3
				c-2.1,0-3.7-1.3-3.7-3.4C297,95.4,298.9,93.5,301.5,93.5z"/>
			<path class="st1" d="M308.2,98.4h-1.4l-0.6,2.9h-1.3l1.7-7.7h3.1c1.2,0,2.3,0.8,2.3,2.1c0,1.4-1,2.5-2.3,2.6l1.2,2.9h-1.5
				L308.2,98.4z M310.5,95.8c0-0.6-0.5-1-1.1-1h-1.8l-0.5,2.4h1.9C309.9,97.2,310.5,96.6,310.5,95.8z"/>
			<path class="st1" d="M316.9,93.5c2.1,0,3.7,1.3,3.7,3.4c0,2.5-1.9,4.5-4.4,4.5c-2.1,0-3.7-1.3-3.7-3.4
				C312.5,95.5,314.4,93.5,316.9,93.5z M316.8,94.7c-1.6,0-2.9,1.4-2.9,3.3c0,1.5,1,2.3,2.3,2.3c1.6,0,2.9-1.4,2.9-3.3
				C319.1,95.5,318.1,94.7,316.8,94.7z"/>
			<path class="st1" d="M321.5,98.2l1-4.7h1.4l-1,4.6c0,0.1,0,0.2,0,0.4c0,0.9,0.6,1.6,1.8,1.6c1.3,0,1.9-0.8,2.2-2l1-4.6h1.4
				l-1,4.6c-0.4,1.9-1.3,3.2-3.5,3.2c-2.1,0-3.2-1-3.2-2.6C321.5,98.6,321.5,98.4,321.5,98.2z"/>
			<path class="st1" d="M330.9,93.6h3.1c1.5,0,2.3,0.9,2.3,2.1c0,1.2-0.8,2.7-3.1,2.7h-2l-0.6,2.9h-1.3L330.9,93.6z M334.8,95.8
				c0-0.6-0.4-1-1.1-1h-1.8l-0.5,2.4h1.8C334.2,97.2,334.8,96.6,334.8,95.8z"/>
			<path class="st1" d="M336.9,95.9c0-1.4,1.1-2.4,2.4-2.4c1.4,0,2.4,1.1,2.4,2.4c0,1.3-1.1,2.4-2.5,2.4
				C338,98.4,336.9,97.3,336.9,95.9z M337.3,95.9c0,1.2,0.9,2.1,2.1,2.1c1.2,0,2.1-0.9,2.1-2.1c0-1.2-0.9-2.1-2.1-2.1
				C338.2,93.8,337.3,94.7,337.3,95.9z M339.3,96.2h-0.5l-0.2,1.1h-0.4l0.6-2.8h1.1c0.5,0,0.8,0.3,0.8,0.7c0,0.6-0.5,0.9-0.9,0.9
				l0.5,1.1h-0.4L339.3,96.2z M339.1,94.9l-0.2,1h0.8c0.4,0,0.6-0.3,0.6-0.6c0-0.3-0.2-0.4-0.5-0.4H339.1z"/>
		</g>
		<polygon class="st2" points="47.2,0 0,27.3 0,81.8 47.2,109.1 94.5,81.8 94.5,27.3 		"/>
		<g>
			<path class="st1" d="M66.8,67.6c0-4.3-1.6-7.8-7.6-11.1l-6.5-3.7c-3.5-2-4.5-3.1-4.5-4.9c0-2.5,1.7-3.9,5.7-3.9
				c3.5,0,7.1,0.2,10.7,0.5h0.1c0.5,0,0.9-0.4,0.9-1v-4c0-0.5-0.4-0.9-1-1c-1.9-0.4-6.9-1-10.5-1c-10.1,0-13.6,4.4-13.6,10.4
				c0,3.8,1.4,7,6.4,10l7.2,4.3c3.6,2.1,4.6,3.2,4.6,5.3c0,3.2-1.5,4.9-6.3,4.9c-2,0-7.5-0.3-9.6-0.5h-0.1c-0.5,0-1,0.4-1,1v3.9
				c0,0.6,0.5,1,1,1.1c2.6,0.6,5.6,1,9.6,1C63.4,78.9,66.8,73.1,66.8,67.6 M39.4,66.3V37.8c0-0.6-0.5-1.1-1.1-1.1h-5
				c-0.6,0-1.1,0.5-1.1,1.1v28.5c0,0.6,0.5,1.1,1.1,1.1h5C38.9,67.5,39.4,66.9,39.4,66.3 M39.5,31.6v-4.8c0-0.6-0.5-1.1-1.1-1.1
				h-5.3c-0.6,0-1.1,0.5-1.1,1.1v4.8c0,0.6,0.5,1.1,1.1,1.1h5.3C39,32.6,39.5,32.2,39.5,31.6"/>
		</g>
		<g>
			<path class="st2" d="M347.2,53.2c2.1,0,3.7,1.6,3.7,3.7c0,2.1-1.6,3.7-3.7,3.7c-2.1,0-3.8-1.6-3.8-3.7
				C343.4,54.8,345.1,53.2,347.2,53.2L347.2,53.2z M347.2,53.9c-1.6,0-2.8,1.3-2.8,2.9c0,1.6,1.2,2.9,2.9,2.9c1.6,0,2.8-1.3,2.8-2.9
				C350,55.2,348.8,53.9,347.2,53.9L347.2,53.9z M346.6,58.7h-0.8v-3.6c0.3-0.1,0.8-0.1,1.4-0.1c0.7,0,1,0.1,1.3,0.3
				c0.2,0.2,0.4,0.4,0.4,0.8c0,0.4-0.3,0.7-0.8,0.9v0c0.4,0.1,0.6,0.4,0.7,0.9c0.1,0.6,0.2,0.8,0.3,0.9h-0.9
				c-0.1-0.1-0.2-0.4-0.3-0.9c-0.1-0.4-0.3-0.6-0.8-0.6h-0.4V58.7z M346.7,56.7h0.4c0.5,0,0.8-0.2,0.8-0.5c0-0.3-0.2-0.6-0.8-0.6
				c-0.2,0-0.4,0-0.5,0V56.7z"/>
		</g>
		<g>
			<path class="st1" d="M72.7,39.7"/>
		</g>
	</g>
</g>
</svg>
